# xmcd
#
# Track frame offsets:
#	150
#	13637
#	25435
#	39496
#	54699
#	69881
#	83361
#	95381
#	105829
#	116856
#	130616
#	142940
#	156895
#	169107
#	181037
#	191055
#	202217
#	211881
#	223354
#	236475
#	245211
#	260670
#	271917
#	281730
#
# Disc length: 3932 seconds
#
# Revision: 2
# Processed by: cddbd v1.5.1PL0 Copyright (c) Steve Scherf et al.
# Submitted via: audiograbber 1.83.01
#
DISCID=5c0f5a18
DTITLE=Dick Curless - A Tombstone every Mile  Vol.5
DYEAR=1900
DGENRE=
TTITLE0=Life goes on
TTITLE1=Big Foot
TTITLE2=I'm worried about me
TTITLE3=Secret of yout Heart 1
TTITLE4=Secret of your Heart  2
TTITLE5=The wild Side of Town
TTITLE6=Nobody knows you, when you're down and out
TTITLE7=Things
TTITLE8=Easy Woman
TTITLE9=Down the Corner at Kelly's
TTITLE10=Tonight is the Night my Angels halo fell
TTITLE11=Maybe i'll cry over you
TTITLE12=It's nothing to me
TTITLE13=The good old Days
TTITLE14=Over the edge
TTITLE15=Blue is a beautiful color
TTITLE16=A good Year for the Wine
TTITLE17=Tears instead of chess
TTITLE18=All i need is you
TTITLE19=Be here to Love me
TTITLE20=Kentucky Boy
TTITLE21=The Sun
TTITLE22=Jamaica farewell
TTITLE23=Somebody else
EXTD=
EXTT0=
EXTT1=
EXTT2=
EXTT3=
EXTT4=
EXTT5=
EXTT6=
EXTT7=
EXTT8=
EXTT9=
EXTT10=
EXTT11=
EXTT12=
EXTT13=
EXTT14=
EXTT15=
EXTT16=
EXTT17=
EXTT18=
EXTT19=
EXTT20=
EXTT21=
EXTT22=
EXTT23=
PLAYORDER=
